<?xml version="1.0" encoding="utf-8"?>
<!-- Generator: Adobe Illustrator 26.3.1, SVG Export Plug-In . SVG Version: 6.00 Build 0)  -->
<svg version="1.1" id="Layer_1" xmlns="http://www.w3.org/2000/svg" xmlns:xlink="http://www.w3.org/1999/xlink" x="0px" y="0px"
	 viewBox="0 0 48 48" style="enable-background:new 0 0 48 48;" xml:space="preserve">
<style type="text/css">
	.st0{fill-rule:evenodd;clip-rule:evenodd;fill:#71BC3E;}
</style>
<g>
	<g transform="translate(-702.000000, -265.000000)">
		<path class="st0" d="M748,313h-9.7v-14.1c0-3.7-1.5-6.2-4.9-6.2c-2.6,0-4,1.7-4.6,3.3c-0.2,0.6-0.2,1.4-0.2,2.2V313h-9.6
			c0,0,0.1-24.9,0-27.2h9.6v4.3c0.6-1.9,3.6-4.5,8.6-4.5c6.1,0,10.9,3.9,10.9,12.3V313L748,313z M709.2,282.4L709.2,282.4
			c-3.2,0-5.2-2.1-5.2-4.7c0-2.7,2.1-4.7,5.2-4.7c3.2,0,5.1,2,5.2,4.7C714.4,280.3,712.4,282.4,709.2,282.4L709.2,282.4L709.2,282.4
			z M705.1,285.8h8.6V313h-8.6V285.8L705.1,285.8z"/>
	</g>
</g>
</svg>
